# xmcd CD database file
#
# Track frame offsets:
#	150
#	20725
#	52447
#	84227
#
# Disc length: 1259 seconds
#
# Revision: 1
# Processed by: cddbd v1.5PL3 Copyright (c) Steve Scherf et al.
# Submitted via: CDex 1.51
#
DISCID=3004e904
DTITLE=Every Little Thing - For the moment
DYEAR=1997
DGENRE=JPop
TTITLE0=For the moment
TTITLE1=For the moment (Remix 7.00)
TTITLE2=For the moment (Instrumental)
TTITLE3=CD-EXTRA
EXTD=YEAR: 1997
EXTT0=
EXTT1=
EXTT2=
EXTT3=
PLAYORDER=
